<svg xmlns="http://www.w3.org/2000/svg" version="1.1" xmlns:xlink="http://www.w3.org/1999/xlink" xmlns:svgjs="http://svgjs.com/svgjs" width="1920" height="700" preserveAspectRatio="none" viewBox="0 0 1920 700"><g mask="url(&quot;#SvgjsMask1015&quot;)" fill="none"><rect width="1920" height="700" x="0" y="0" fill="rgba(33, 33, 33, 1)"></rect><path d="M0,784.768C174.675,787.329,353.6,869.533,513.28,798.679C680.429,724.511,837.907,577.773,871.57,398.033C904.843,220.377,714.799,79.653,681.208,-97.943C649.916,-263.383,760.818,-442.917,684.155,-592.824C603.092,-751.336,439.141,-863.996,266.733,-908.41C96.493,-952.266,-76.562,-884.629,-244.299,-832.004C-409.142,-780.287,-596.653,-744.844,-698.779,-605.496C-799.316,-468.317,-746.803,-279.191,-772.647,-111.09C-798.819,59.144,-901.238,223.997,-851.664,388.942C-800.127,560.418,-666.072,708.305,-503.699,783.771C-348.293,855.999,-171.353,782.256,0,784.768" fill="#161616"></path><path d="M1920 1399.277C2049.377 1393.775 2168.355 1321.5230000000001 2261.846 1231.923 2345.86 1151.405 2362.995 1030.192 2414.165 925.678 2467.117 817.523 2561.982 727.126 2567.88 606.849 2574.2690000000002 476.56399999999996 2523.574 348.857 2447.652 242.78699999999998 2367.187 130.37 2256.562 42.57299999999998 2127.859-7.902000000000044 1991.544-61.361999999999966 1840.656-89.89300000000003 1699.609-50.58100000000002 1557.6979999999999-11.028999999999996 1421.106 77.87099999999998 1352.449 208.21499999999997 1287.518 331.487 1372.9589999999998 480.702 1347.6019999999999 617.702 1320.5839999999998 763.674 1154.335 887.48 1200.616 1028.532 1245.9679999999998 1166.753 1429.634 1195.174 1558.943 1261.815 1675.781 1322.029 1788.677 1404.862 1920 1399.277" fill="#2d2d2d"></path></g><defs><mask id="SvgjsMask1015"><rect width="1920" height="700" fill="#ffffff"></rect></mask></defs></svg>