<svg xmlns="http://www.w3.org/2000/svg" version="1.1" xmlns:xlink="http://www.w3.org/1999/xlink" xmlns:svgjs="http://svgjs.com/svgjs" width="1920" height="600" preserveAspectRatio="none" viewBox="0 0 1920 600"><g mask="url(&quot;#SvgjsMask1488&quot;)" fill="none"><rect width="1920" height="600" x="0" y="0" fill="rgba(245, 246, 247, 1)"></rect><path d="M 0,93 C 42.8,142.6 128.4,317.2 214,341 C 299.6,364.8 342.4,185 428,212 C 513.6,239 556.4,486.6 642,476 C 727.6,465.4 770.4,157.6 856,159 C 941.6,160.4 984.4,484.6 1070,483 C 1155.6,481.4 1198.4,168.8 1284,151 C 1369.6,133.2 1412.4,364.4 1498,394 C 1583.6,423.6 1627.6,272.6 1712,299 C 1796.4,325.4 1878.4,480.6 1920,526L1920 600L0 600z" fill="rgba(112, 221, 166, 1)"></path><path d="M 0,421 C 76.8,340.2 230.4,33.4 384,17 C 537.6,0.6 614.4,285.6 768,339 C 921.6,392.4 998.4,269.4 1152,284 C 1305.6,298.6 1382.4,436.2 1536,412 C 1689.6,387.8 1843.2,212.8 1920,163L1920 600L0 600z" fill="rgba(121, 185, 39, 1)"></path></g><defs><mask id="SvgjsMask1488"><rect width="1920" height="600" fill="#ffffff"></rect></mask></defs></svg>