<svg xmlns="http://www.w3.org/2000/svg" version="1.1" xmlns:xlink="http://www.w3.org/1999/xlink" xmlns:svgjs="http://svgjs.com/svgjs" width="1440" height="560" preserveAspectRatio="none" viewBox="0 0 1440 560"><g mask="url(&quot;#SvgjsMask1189&quot;)" fill="none"><rect width="1440" height="560" x="0" y="0" fill="url(#SvgjsRadialGradient1190)"></rect><path d="M584.53 397.46L636.75 397.46L636.75 449.68L584.53 449.68z" stroke="#e73635"></path><path d="M270.64 350.82L304.79 350.82L304.79 389.77L270.64 389.77z" fill="rgba(118, 108, 111, 1)"></path><path d="M675.04 403.62 a46.05 46.05 0 1 0 92.1 0 a46.05 46.05 0 1 0 -92.1 0z" stroke="rgba(108, 108, 118, 1)"></path><path d="M114.45 120.07 a30.15 30.15 0 1 0 60.3 0 a30.15 30.15 0 1 0 -60.3 0z" fill="rgba(108, 108, 118, 1)"></path><path d="M1186.93 458 a17.56 17.56 0 1 0 35.12 0 a17.56 17.56 0 1 0 -35.12 0z" fill="rgba(108, 108, 118, 1)"></path><path d="M1043 70.25 a46.07 46.07 0 1 0 92.14 0 a46.07 46.07 0 1 0 -92.14 0z" fill="#d3b714"></path><path d="M412.69 250.62a26.54 26.54 0 1 0 17.08 50.25z" fill="#037b0b"></path><path d="M1215.16 22.09L1252.19 22.09L1252.19 67.84L1215.16 67.84z" stroke="#037b0b"></path><path d="M428.07 321.37L483.32 321.37L483.32 362.1L428.07 362.1z" fill="#d3b714"></path><path d="M442.77 302.27 a41.77 41.77 0 1 0 83.54 0 a41.77 41.77 0 1 0 -83.54 0z" fill="#d3b714"></path><path d="M422.39 510.78a23.05 23.05 0 1 0-36.58 28.05z" fill="#d3b714"></path><path d="M1195.07 289.74L1213.73 289.74L1213.73 294.12L1195.07 294.12z" stroke="#e73635"></path><path d="M299.21 413.24L325.58 413.24L325.58 439.61L299.21 439.61z" stroke="#037b0b"></path><path d="M148.12 301.43 a21.2 21.2 0 1 0 42.4 0 a21.2 21.2 0 1 0 -42.4 0z" stroke="rgba(118, 108, 111, 1)"></path><path d="M681.12 78.53a39.9 39.9 0 1 0-79.37 8.26z" stroke="rgba(108, 108, 118, 1)"></path><path d="M1392.78 283.98L1414.16 283.98L1414.16 305.36L1392.78 305.36z" fill="#e73635"></path><path d="M39.45 4.15L43.32 4.15L43.32 33.63L39.45 33.63z" fill="rgba(108, 108, 118, 1)"></path><path d="M903.55 56.37 a15.77 15.77 0 1 0 31.54 0 a15.77 15.77 0 1 0 -31.54 0z" stroke="#037b0b"></path><path d="M137.97 21.44L150.88 21.44L150.88 34.35L137.97 34.35z" stroke="#037b0b"></path><path d="M407.75 261.12a54.85 54.85 0 1 0 85.22 69.08z" stroke="rgba(73, 83, 188, 1)"></path><path d="M1019.23 334.2 a41.91 41.91 0 1 0 83.82 0 a41.91 41.91 0 1 0 -83.82 0z" fill="#e73635"></path><path d="M426.47 126.07L478.17 126.07L478.17 177.77L426.47 177.77z" stroke="#037b0b"></path><path d="M1055.25 362.89a27.93 27.93 0 1 0-32.5 45.43z" stroke="rgba(108, 108, 118, 1)"></path><path d="M1126.08 341.25L1136.65 341.25L1136.65 341.55L1126.08 341.55z" fill="#037b0b"></path><path d="M1372.46 334.78L1407.88 334.78L1407.88 370.2L1372.46 370.2z" stroke="rgba(118, 108, 111, 1)"></path><path d="M824.31 553.64L846.23 553.64L846.23 597.84L824.31 597.84z" stroke="rgba(108, 108, 118, 1)"></path><path d="M1191.59 315.44L1225.81 315.44L1225.81 322.14L1191.59 322.14z" stroke="#037b0b"></path><path d="M122.12 475.12a47.29 47.29 0 1 0-92.15-21.3z" fill="#037b0b"></path><path d="M472.07 539.4 a12.92 12.92 0 1 0 25.84 0 a12.92 12.92 0 1 0 -25.84 0z" fill="#d3b714"></path><path d="M934.36 225.41L977.47 225.41L977.47 268.52L934.36 268.52z" fill="#d3b714"></path><path d="M74.02 555.04L98.52 555.04L98.52 579.54L74.02 579.54z" stroke="rgba(118, 108, 111, 1)"></path><path d="M1212.21 255.59 a32.66 32.66 0 1 0 65.32 0 a32.66 32.66 0 1 0 -65.32 0z" fill="rgba(108, 108, 118, 1)"></path><path d="M904.14 280.6a9.23 9.23 0 1 0 6.25-17.37z" stroke="rgba(73, 83, 188, 1)"></path></g><defs><mask id="SvgjsMask1189"><rect width="1440" height="560" fill="#ffffff"></rect></mask><radialGradient cx="50%" cy="50%" r="772.53" gradientUnits="userSpaceOnUse" id="SvgjsRadialGradient1190"><stop stop-color="rgba(255, 255, 255, 1)" offset="0"></stop><stop stop-color="rgba(255, 255, 255, 1)" offset="0.24"></stop></radialGradient></defs></svg>