<?xml version="1.0" standalone="no"?>
<svg xmlns:xlink="http://www.w3.org/1999/xlink" id="wave" style="transform:rotate(0deg); transition: 0.3s" viewBox="0 0 1440 490" version="1.1" xmlns="http://www.w3.org/2000/svg"><defs><linearGradient id="sw-gradient-0" x1="0" x2="0" y1="1" y2="0"><stop stop-color="rgba(45, 80, 45, 1)" offset="0%"/><stop stop-color="rgba(121, 185, 40, 1)" offset="100%"/></linearGradient></defs><path style="transform:translate(0, 0px); opacity:1" fill="url(#sw-gradient-0)" d="M0,245L40,245C80,245,160,245,240,245C320,245,400,245,480,204.2C560,163,640,82,720,98C800,114,880,229,960,261.3C1040,294,1120,245,1200,196C1280,147,1360,98,1440,89.8C1520,82,1600,114,1680,179.7C1760,245,1840,343,1920,392C2000,441,2080,441,2160,383.8C2240,327,2320,212,2400,212.3C2480,212,2560,327,2640,351.2C2720,376,2800,310,2880,236.8C2960,163,3040,82,3120,98C3200,114,3280,229,3360,302.2C3440,376,3520,408,3600,351.2C3680,294,3760,147,3840,147C3920,147,4000,294,4080,326.7C4160,359,4240,278,4320,204.2C4400,131,4480,65,4560,98C4640,131,4720,261,4800,318.5C4880,376,4960,359,5040,326.7C5120,294,5200,245,5280,220.5C5360,196,5440,196,5520,163.3C5600,131,5680,65,5720,32.7L5760,0L5760,490L5720,490C5680,490,5600,490,5520,490C5440,490,5360,490,5280,490C5200,490,5120,490,5040,490C4960,490,4880,490,4800,490C4720,490,4640,490,4560,490C4480,490,4400,490,4320,490C4240,490,4160,490,4080,490C4000,490,3920,490,3840,490C3760,490,3680,490,3600,490C3520,490,3440,490,3360,490C3280,490,3200,490,3120,490C3040,490,2960,490,2880,490C2800,490,2720,490,2640,490C2560,490,2480,490,2400,490C2320,490,2240,490,2160,490C2080,490,2000,490,1920,490C1840,490,1760,490,1680,490C1600,490,1520,490,1440,490C1360,490,1280,490,1200,490C1120,490,1040,490,960,490C880,490,800,490,720,490C640,490,560,490,480,490C400,490,320,490,240,490C160,490,80,490,40,490L0,490Z"/><defs><linearGradient id="sw-gradient-1" x1="0" x2="0" y1="1" y2="0"><stop stop-color="rgba(45, 80, 45, 1)" offset="0%"/><stop stop-color="rgba(121, 185, 40, 1)" offset="100%"/></linearGradient></defs><path style="transform:translate(0, 50px); opacity:0.9" fill="url(#sw-gradient-1)" d="M0,196L40,163.3C80,131,160,65,240,40.8C320,16,400,33,480,98C560,163,640,278,720,294C800,310,880,229,960,171.5C1040,114,1120,82,1200,81.7C1280,82,1360,114,1440,155.2C1520,196,1600,245,1680,228.7C1760,212,1840,131,1920,130.7C2000,131,2080,212,2160,220.5C2240,229,2320,163,2400,130.7C2480,98,2560,98,2640,114.3C2720,131,2800,163,2880,155.2C2960,147,3040,98,3120,73.5C3200,49,3280,49,3360,81.7C3440,114,3520,180,3600,171.5C3680,163,3760,82,3840,57.2C3920,33,4000,65,4080,130.7C4160,196,4240,294,4320,326.7C4400,359,4480,327,4560,269.5C4640,212,4720,131,4800,114.3C4880,98,4960,147,5040,196C5120,245,5200,294,5280,277.7C5360,261,5440,180,5520,138.8C5600,98,5680,98,5720,98L5760,98L5760,490L5720,490C5680,490,5600,490,5520,490C5440,490,5360,490,5280,490C5200,490,5120,490,5040,490C4960,490,4880,490,4800,490C4720,490,4640,490,4560,490C4480,490,4400,490,4320,490C4240,490,4160,490,4080,490C4000,490,3920,490,3840,490C3760,490,3680,490,3600,490C3520,490,3440,490,3360,490C3280,490,3200,490,3120,490C3040,490,2960,490,2880,490C2800,490,2720,490,2640,490C2560,490,2480,490,2400,490C2320,490,2240,490,2160,490C2080,490,2000,490,1920,490C1840,490,1760,490,1680,490C1600,490,1520,490,1440,490C1360,490,1280,490,1200,490C1120,490,1040,490,960,490C880,490,800,490,720,490C640,490,560,490,480,490C400,490,320,490,240,490C160,490,80,490,40,490L0,490Z"/><defs><linearGradient id="sw-gradient-2" x1="0" x2="0" y1="1" y2="0"><stop stop-color="rgba(45, 80, 45, 1)" offset="0%"/><stop stop-color="rgba(121, 185, 40, 1)" offset="100%"/></linearGradient></defs><path style="transform:translate(0, 100px); opacity:0.8" fill="url(#sw-gradient-2)" d="M0,441L40,383.8C80,327,160,212,240,187.8C320,163,400,229,480,253.2C560,278,640,261,720,261.3C800,261,880,278,960,277.7C1040,278,1120,261,1200,236.8C1280,212,1360,180,1440,138.8C1520,98,1600,49,1680,32.7C1760,16,1840,33,1920,40.8C2000,49,2080,49,2160,40.8C2240,33,2320,16,2400,73.5C2480,131,2560,261,2640,334.8C2720,408,2800,425,2880,408.3C2960,392,3040,343,3120,310.3C3200,278,3280,261,3360,261.3C3440,261,3520,278,3600,245C3680,212,3760,131,3840,155.2C3920,180,4000,310,4080,351.2C4160,392,4240,343,4320,269.5C4400,196,4480,98,4560,57.2C4640,16,4720,33,4800,73.5C4880,114,4960,180,5040,187.8C5120,196,5200,147,5280,163.3C5360,180,5440,261,5520,318.5C5600,376,5680,408,5720,424.7L5760,441L5760,490L5720,490C5680,490,5600,490,5520,490C5440,490,5360,490,5280,490C5200,490,5120,490,5040,490C4960,490,4880,490,4800,490C4720,490,4640,490,4560,490C4480,490,4400,490,4320,490C4240,490,4160,490,4080,490C4000,490,3920,490,3840,490C3760,490,3680,490,3600,490C3520,490,3440,490,3360,490C3280,490,3200,490,3120,490C3040,490,2960,490,2880,490C2800,490,2720,490,2640,490C2560,490,2480,490,2400,490C2320,490,2240,490,2160,490C2080,490,2000,490,1920,490C1840,490,1760,490,1680,490C1600,490,1520,490,1440,490C1360,490,1280,490,1200,490C1120,490,1040,490,960,490C880,490,800,490,720,490C640,490,560,490,480,490C400,490,320,490,240,490C160,490,80,490,40,490L0,490Z"/></svg>